# xmcd
#
# Track frame offsets:
#	150
#	20525
#	40220
#	62090
#	81010
#	99625
#	110655
#	127082
#	145192
#	168135
#	184650
#
# Disc length: 2808 seconds
#
# Revision: 0
# Processed by: cddbd v1.4PL0 Copyright (c) Steve Scherf et al.
# Submitted via: dBpowerAMP V4.0
#
DISCID=920af60b
DTITLE=Monopol - Spirit Of Soul'n' Bossa Lights
DYEAR=1988
DGENRE=Soul
TTITLE0=9 P.M.
TTITLE1=Take All Of Me
TTITLE2=Do That Funk
TTITLE3=Best Friends
TTITLE4=The Night Before Sunday
TTITLE5=Toodleoodoo
TTITLE6=Midnight Sunset
TTITLE7=Pacific Coast Highway
TTITLE8=Blue For You
TTITLE9=Dusty
TTITLE10=Come Closer
EXTD=
EXTT0=
EXTT1=
EXTT2=
EXTT3=
EXTT4=
EXTT5=
EXTT6=
EXTT7=
EXTT8=
EXTT9=
EXTT10=
PLAYORDER=
